<svg width="21" height="24" viewBox="0 0 21 24" fill="none" xmlns="http://www.w3.org/2000/svg">
<g clip-path="url(#clip0_2_45)">
<path d="M4.14994 7.29007C4.27341 6.51359 4.5893 6.24958 5.38236 6.23849C5.51156 6.22849 5.64135 6.22849 5.77055 6.23849C6.16986 6.29284 6.34115 6.16639 6.31112 5.72934C6.27219 5.15918 6.29889 4.58458 6.30222 4.0122C6.31112 1.72379 8.1108 0.00110593 10.4944 -0.00333112C12.8781 -0.00776817 14.6822 1.69606 14.7111 3.99001C14.7167 4.43372 14.7111 4.87742 14.7111 5.32113C14.72 6.37493 14.5854 6.23072 15.6165 6.24071C16.4285 6.24847 16.7233 6.47032 16.8556 7.27343C17.2959 9.93856 17.2985 12.6574 16.8634 15.3234C16.7277 16.1697 16.443 16.386 15.5998 16.386C13.8943 16.386 12.191 16.386 10.49 16.386C8.78893 16.386 7.08564 16.386 5.38013 16.386C4.57929 16.386 4.27452 16.1231 4.14994 15.3433C3.72093 12.676 3.72093 9.95744 4.14994 7.29007ZM10.1151 11.8658C10.0524 12.0186 9.99859 12.1749 9.95386 12.3339C9.67579 13.1725 9.67579 13.1725 10.5423 13.1736C11.3587 13.1736 11.3587 13.1736 11.0906 12.3971C11.0384 12.2018 10.973 12.0102 10.8949 11.8236C10.7347 11.5097 10.7758 11.31 11.084 11.0871C11.4699 10.8075 11.4644 10.3017 11.1451 9.97781C11.0626 9.89073 10.9631 9.82136 10.8527 9.77396C10.7424 9.72655 10.6235 9.7021 10.5033 9.7021C10.3832 9.7021 10.2643 9.72655 10.1539 9.77396C10.0436 9.82136 9.94409 9.89073 9.86155 9.97781C9.53565 10.3195 9.52786 10.7964 9.93718 11.0804C10.2909 11.3267 10.2564 11.5552 10.1151 11.8658ZM8.30656 6.24847C9.02621 6.21741 9.75254 6.2396 10.4711 6.2396C11.2297 6.2396 11.9882 6.22407 12.7457 6.24736C13.1194 6.25956 13.2841 6.1675 13.2629 5.75929C13.2318 5.15141 13.2629 4.5391 13.2518 3.93233C13.2173 2.44925 12.0283 1.33666 10.4933 1.34664C8.95837 1.35663 7.79046 2.47032 7.77378 3.96339C7.76599 4.55352 7.79825 5.14587 7.76266 5.73821C7.7393 6.16861 7.90503 6.26511 8.30656 6.24847Z" fill="#DD1D21"/>
<path d="M0.00222969 18.2008C0.00222969 17.8181 0.101227 17.6872 0.498314 17.6883C7.16685 17.6986 13.8346 17.6986 20.5017 17.6883C20.9032 17.6883 21 17.8192 20.9956 18.1963C20.9789 19.9135 20.9689 21.6351 20.9956 23.35C21.0045 23.8458 20.8921 24.0044 20.3627 24C17.0848 23.9734 13.8057 23.9867 10.5278 23.9867C7.21208 23.9867 3.89635 23.9778 0.581736 23.9967C0.11791 23.9967 -0.0111179 23.8713 -0.00444412 23.4099C0.026701 21.6739 0.0200272 19.9368 0.00222969 18.2008ZM1.52273 23.0216C4.5259 23.0061 7.52241 23.0128 10.5223 23.0128C13.4665 23.0128 16.4174 22.9972 19.356 23.0272C19.9122 23.0272 20.0323 22.8674 20.0123 22.3472C19.97 21.259 19.9901 20.1686 20.0034 19.0793C20.0034 18.7754 19.93 18.6656 19.603 18.6667C13.5469 18.6755 7.49127 18.6755 1.43597 18.6667C1.0945 18.6667 0.991056 18.7776 0.991056 19.1104C1.00774 20.2374 1.01664 21.3644 0.991056 22.4903C0.978821 22.9185 1.11118 23.0294 1.52273 23.0216Z" fill="#DD1D21"/>
<path d="M17.3873 20.426C17.1337 20.4859 16.9735 20.3272 16.7989 20.2496C16.503 20.1176 16.2427 20.0843 16.1215 20.4393C15.9891 20.8297 16.245 20.9651 16.582 21.0183C16.7433 21.0438 16.9001 21.0926 17.0625 21.1292C17.0336 21.4043 16.8156 21.5119 16.6877 21.6839C16.5197 21.9057 16.4596 22.1131 16.7099 22.3062C16.9602 22.4992 17.1548 22.4237 17.3172 22.183C17.4396 21.9989 17.5575 21.8125 17.6832 21.6195C17.9635 21.7304 17.9879 22.0266 18.1514 22.2141C18.3361 22.4282 18.5252 22.508 18.7665 22.3084C19.0079 22.1087 19.029 21.9079 18.8032 21.7005C18.6397 21.5519 18.4551 21.4265 18.266 21.2812C18.4962 20.9994 18.7354 21.0283 18.9334 20.9684C19.2259 20.8796 19.3972 20.7188 19.2893 20.4027C19.1814 20.0865 18.9289 20.0699 18.6586 20.1886C18.4929 20.2618 18.3383 20.3561 18.1481 20.4581C18.0369 20.1841 18.1403 19.9523 18.1403 19.7249C18.1403 19.4565 18.0224 19.2901 17.7588 19.2812C17.4707 19.2701 17.3072 19.431 17.3217 19.7249C17.3317 19.9579 17.3639 20.1908 17.3873 20.426Z" fill="#DD1D21"/>
<path d="M3.95196 21.1958C4.12992 20.985 4.37463 21.0283 4.57706 20.9584C4.83623 20.8674 5.02197 20.7199 4.92076 20.4293C4.81954 20.1387 4.58707 20.0499 4.29899 20.1753C4.11546 20.254 3.94083 20.3516 3.69724 20.4726C3.71837 20.1808 3.74173 19.9523 3.74841 19.7238C3.75731 19.4298 3.60159 19.2657 3.30349 19.2801C3.03098 19.2934 2.93866 19.4742 2.93644 19.7349C2.93644 19.9689 3.04767 20.203 2.93644 20.4759C2.72733 20.3882 2.52378 20.3117 2.32801 20.2185C2.02325 20.0721 1.81525 20.1775 1.72071 20.4737C1.62616 20.7698 1.79634 20.924 2.06774 20.9939C2.12135 21.0083 2.17602 21.0183 2.23124 21.0239C2.69729 21.0593 2.78739 21.208 2.42478 21.5585C2.21122 21.7615 1.96318 22.0155 2.31355 22.2951C2.68951 22.5923 2.8786 22.2873 3.03988 22.0056C3.22452 21.6839 3.39137 21.4953 3.61938 21.9756C3.72172 22.1975 3.84184 22.4282 4.12992 22.4193C4.21547 22.415 4.29777 22.3852 4.36617 22.3338C4.43458 22.2824 4.48596 22.2117 4.51366 22.1309C4.6349 21.8159 4.3724 21.6672 4.21001 21.4787C4.12659 21.3833 4.03983 21.2923 3.95196 21.1958Z" fill="#DD1D21"/>
<path d="M13.5432 21.1869C13.8836 20.8708 14.7478 21.1192 14.452 20.376C14.1984 19.7382 13.7434 20.3849 13.323 20.4115C13.323 20.1897 13.3163 19.9612 13.323 19.736C13.3341 19.4431 13.2118 19.2646 12.9081 19.2812C12.6045 19.2978 12.4999 19.5031 12.5266 19.7793C12.5466 19.9956 12.5778 20.2096 12.6056 20.4348C12.3053 20.4714 12.1195 20.2917 11.9048 20.2074C11.6268 20.0965 11.4176 20.1586 11.3198 20.4293C11.2085 20.731 11.3509 20.9284 11.6657 20.995C11.7194 21.0086 11.7741 21.0182 11.8292 21.0238C12.2863 21.0582 12.4009 21.1958 12.0194 21.5507C11.8225 21.7338 11.5745 21.9778 11.8681 22.254C12.2419 22.6068 12.4688 22.3195 12.6312 22C12.8258 21.6173 12.9882 21.4997 13.214 21.9789C13.313 22.1908 13.4364 22.4326 13.7256 22.4226C13.8103 22.4174 13.8916 22.3876 13.9596 22.337C14.0275 22.2863 14.0792 22.217 14.1083 22.1376C14.2295 21.8247 13.9681 21.675 13.8002 21.4875C13.7179 21.3877 13.6344 21.2912 13.5432 21.1869Z" fill="#DD1D21"/>
<path d="M7.80159 20.518L7.09307 20.2041C6.81277 20.0799 6.61256 20.1864 6.51802 20.4493C6.42347 20.7121 6.56139 20.9074 6.83502 20.9884C6.88825 21.0043 6.94308 21.0143 6.99853 21.0183C7.47014 21.0483 7.63364 21.1902 7.20874 21.5652C7.1251 21.6385 7.05507 21.726 7.00186 21.8236C6.97733 21.8631 6.96102 21.9071 6.9539 21.953C6.94677 21.9989 6.94899 22.0457 6.96041 22.0908C6.97182 22.1358 6.99221 22.1781 7.02035 22.2151C7.04849 22.2521 7.08381 22.2831 7.12421 22.3062C7.29105 22.4271 7.46791 22.4603 7.6214 22.2951C7.7256 22.1908 7.81235 22.0706 7.87834 21.939C8.06521 21.5297 8.22427 21.5796 8.39556 21.9456C8.44654 22.0436 8.50688 22.1365 8.57575 22.223C8.73258 22.4315 8.92167 22.4958 9.14635 22.3283C9.37104 22.1608 9.38883 21.9346 9.22421 21.7038C9.08962 21.5141 8.84603 21.4121 8.77262 21.1758C9.02733 20.843 9.98279 21.1603 9.65244 20.3672C9.38994 19.7382 8.93947 20.396 8.53348 20.4071C8.4534 20.1852 8.53348 19.9545 8.53348 19.7282C8.53348 19.4709 8.43115 19.2845 8.15641 19.2845C7.85165 19.2723 7.72707 19.4576 7.73931 19.7427C7.75488 19.97 7.77824 20.203 7.80159 20.518Z" fill="#DD1D21"/>
</g>
<defs>
<clipPath id="clip0_2_45">
<rect width="21" height="24" fill="white" transform="matrix(-1 0 0 1 21 0)"/>
</clipPath>
</defs>
</svg>
