<svg width="35" height="40" viewBox="0 0 35 40" fill="none" xmlns="http://www.w3.org/2000/svg">
<g clip-path="url(#clip0_2_82)">
<path d="M33.0739 34.4684H14.1078V35.8118H33.0739V34.4684Z" fill="#252E3E"/>
<path d="M35 36.4296H12.1818V40.0072H35V36.4296Z" fill="#D12832"/>
<path d="M31.9384 0.0359192H15.2505C14.4379 0.0378216 13.6592 0.361847 13.0852 0.936914C12.5113 1.51198 12.1889 2.29113 12.1889 3.10345V5.76868H10.9672C10.586 5.76868 10.2204 5.92005 9.95079 6.1895C9.68123 6.45895 9.5298 6.8244 9.5298 7.20546V7.81609C9.13136 8.00167 8.79404 8.29683 8.55731 8.66705C8.32058 9.03727 8.19423 9.46723 8.19304 9.90661V11.3434C8.19304 15.7184 5.59859 19.569 3.32035 22.967C1.66019 25.4382 0.230003 27.5647 0.0215841 29.5474C-0.0736904 30.3074 -0.00773354 31.0788 0.215158 31.8116C0.43805 32.5444 0.812875 33.222 1.31522 33.8003C1.784 34.31 2.3557 34.7145 2.9925 34.9869C3.6293 35.2594 4.3167 35.3936 5.00926 35.3807C7.99181 35.3807 9.99694 33.0675 9.99694 29.6336V14.5474H12.1889V33.8721H35.0072V3.06753C34.9978 2.26021 34.6703 1.48917 34.0958 0.921641C33.5213 0.354114 32.7461 0.0358638 31.9384 0.0359192ZM8.22179 29.6552C8.22179 31.5733 7.38093 33.6135 5.02364 33.6135C4.58156 33.6266 4.14181 33.5449 3.73396 33.3739C3.32611 33.2028 2.95963 32.9465 2.65916 32.6221C2.32302 32.2306 2.0752 31.7713 1.93258 31.2754C1.78996 30.7795 1.75589 30.2588 1.83267 29.7486C1.99078 28.204 3.30598 26.25 4.82959 24.0014C6.08914 22.2096 7.22261 20.3325 8.22179 18.3836V29.6552Z" fill="#DD1D21"/>
<path d="M29.3223 3.29023H17.8665C16.7035 3.29023 15.7607 4.23262 15.7607 5.39512V11.4583C15.7607 12.6208 16.7035 13.5632 17.8665 13.5632H29.3223C30.4853 13.5632 31.4281 12.6208 31.4281 11.4583V5.39512C31.4281 4.23262 30.4853 3.29023 29.3223 3.29023Z" fill="#FBCE07"/>
<path d="M12.1889 5.73276H10.9672C10.5859 5.73276 10.2203 5.88413 9.95078 6.15358C9.68122 6.42303 9.52979 6.78848 9.52979 7.16954V7.78017C9.13135 7.96575 8.79403 8.26091 8.5573 8.63113C8.32057 9.00135 8.19422 9.43131 8.19303 9.87069V11.3075C8.19303 15.6825 5.59857 19.533 3.32034 22.931C1.66018 25.4023 0.229991 27.5287 0.0215721 29.5115C-0.0789272 30.2772 -0.0155725 31.0555 0.207442 31.7948C0.430457 32.5342 0.808044 33.2178 1.31521 33.8003C1.78399 34.31 2.35569 34.7145 2.99249 34.9869C3.62929 35.2594 4.31669 35.3936 5.00925 35.3807C7.9918 35.3807 9.99693 33.0675 9.99693 29.6336V14.5474H12.1889V5.73276ZM8.2074 29.6193C8.2074 31.5374 7.36654 33.5776 5.00925 33.5776C4.56717 33.5907 4.12742 33.5089 3.71957 33.3379C3.31173 33.1669 2.94524 32.9106 2.64477 32.5862C2.30863 32.1947 2.06082 31.7353 1.9182 31.2395C1.77558 30.7436 1.7415 30.2228 1.81829 29.7126C1.9764 28.1681 3.29159 26.2141 4.81521 23.9655C6.07476 22.1737 7.20822 20.2966 8.2074 18.3477V29.6193Z" fill="#3D4C66"/>
<path d="M26.9938 4.34627C27.5472 4.34627 28 4.50431 28 4.70546V5.18678C28 5.38793 27.5472 5.55316 26.9938 5.55316H17.9671C17.4137 5.55316 16.9609 5.38793 16.9609 5.18678V4.70546C16.9609 4.50431 17.4137 4.34627 17.9671 4.34627H26.9938Z" fill="white"/>
</g>
<defs>
<clipPath id="clip0_2_82">
<rect width="35" height="40" fill="white"/>
</clipPath>
</defs>
</svg>
