<svg width="90" height="90" viewBox="0 0 90 90" fill="none" xmlns="http://www.w3.org/2000/svg">
<g clip-path="url(#clip0_2_31)">
<path d="M39.9139 83.3941H17.5844L15.5996 66.8952L1.95382 57.095C1.33356 54.2418 1.08546 51.2646 1.08546 48.2873C1.08546 23.973 20.8098 4.37277 45 4.37277C69.3143 4.37277 88.9145 24.0971 88.9145 48.2873C88.9145 51.2646 88.6664 54.2418 88.0462 57.095L74.5245 66.8952L72.4156 83.3941H50.0861L48.8456 84.3866C47.7292 85.2549 46.3646 85.6271 45 85.6271C43.6354 85.6271 42.2708 85.1309 41.1544 84.3866L39.9139 83.3941V83.3941Z" stroke="white" stroke-width="3.08753" stroke-miterlimit="40"/>
<path d="M39.9139 83.3941H17.5844L15.5996 66.8952L1.95382 57.095C1.33356 54.2418 1.08546 51.2646 1.08546 48.2873C1.08546 23.973 20.8098 4.37277 45 4.37277C69.3143 4.37277 88.9145 24.0971 88.9145 48.2873C88.9145 51.2646 88.6664 54.2418 88.0462 57.095L74.5245 66.8952L72.4156 83.3941H50.0861L48.8456 84.3866C47.7292 85.2549 46.3646 85.6271 45 85.6271C43.6354 85.6271 42.2708 85.1309 41.1544 84.3866L39.9139 83.3941Z" fill="#FBCE07"/>
<path fill-rule="evenodd" clip-rule="evenodd" d="M39.9139 83.3941H17.5844L15.5996 66.8952L1.95382 57.095C1.33356 54.2418 1.08546 51.2646 1.08546 48.2873C1.08546 23.973 20.8098 4.37277 45 4.37277C69.1902 4.37277 88.9145 24.0971 88.9145 48.2873C88.9145 51.2646 88.6664 54.2418 88.0462 57.095L74.5245 66.8952L72.4156 83.3941H50.0861L48.8456 84.3866C47.7292 85.2549 46.3646 85.6271 45 85.6271C43.6354 85.6271 42.2708 85.1309 41.1544 84.3866L39.9139 83.3941ZM40.6582 75.7029H24.4073L22.7946 62.5533L9.39697 52.8773C9.02481 51.3886 8.77671 49.7759 8.77671 48.1633C8.77671 45.5582 9.27291 42.9531 10.3894 40.5961L34.0834 64.5382L11.1337 36.1302C12.0021 32.4086 13.9869 29.1832 16.8401 26.5781L37.4328 62.1812L19.1971 23.3528C21.5541 20.2515 24.9035 17.8945 28.6251 16.778L41.2784 60.9407L32.0986 14.9172C34.9518 13.3045 38.0531 12.5602 41.2784 12.5602C41.8987 12.5602 42.643 12.5602 43.2633 12.6843L45.1241 60.4445L46.9848 12.6843C47.6051 12.5602 48.3494 12.5602 48.9697 12.5602C52.195 12.5602 55.2964 13.4286 58.1496 14.9172L48.9697 60.9407L61.623 16.654C65.3446 17.7704 68.694 20.1274 71.051 23.2287L52.6912 62.1812L73.2839 26.5781C76.1371 29.0592 78.122 32.4086 78.9903 36.1302L56.0407 64.5382L79.7347 40.5961C80.8511 42.9531 81.3473 45.5582 81.3473 48.1633C81.3473 49.7759 81.0992 51.2646 80.7271 52.8773L67.3294 62.5533L65.7168 75.7029H49.5899L47.1089 77.4396C46.4886 77.9358 45.7443 78.0599 45 78.0599C44.2557 78.0599 43.5114 77.8118 42.8911 77.4396L40.6582 75.7029Z" fill="#DD1D21"/>
</g>
<defs>
<clipPath id="clip0_2_31">
<rect width="90" height="90" fill="white"/>
</clipPath>
</defs>
</svg>
