<svg width="18" height="18" viewBox="0 0 18 18" fill="none" xmlns="http://www.w3.org/2000/svg">
<path d="M11.9764 11.733C11.0967 12.5752 10.0889 13.042 8.86408 13.0121C7.05554 12.968 5.51558 11.7038 5.06489 9.86051C4.65496 8.18361 5.49312 6.31281 7.02976 5.47561C9.7405 3.99845 12.9601 5.86342 13.0167 8.94841C13.0275 9.51681 13.0059 10.086 13.0233 10.6544C13.0449 11.3518 13.4516 11.8703 14.0477 12.0018C14.6439 12.1333 15.1121 11.8703 15.3299 11.2869C16.0924 9.24218 15.8929 7.26902 14.7479 5.434C12.0471 1.11319 5.80993 1.19391 3.18983 5.5605C0.74019 9.63831 3.26217 14.9744 7.97686 15.6843C9.49188 15.9123 10.9237 15.6776 12.2658 14.927C12.3861 14.8593 12.5097 14.7969 12.6367 14.7397C12.9984 14.5733 13.3443 14.664 13.4973 14.9728C13.6711 15.3223 13.5463 15.6177 13.2412 15.7941C12.7929 16.0669 12.3219 16.3002 11.8334 16.4915C6.82854 18.3149 1.59748 15.0468 1.0412 9.76148C0.550602 5.09446 4.37557 0.93343 9.10107 1.00084C13.7301 1.06908 17.3414 4.9896 16.9747 9.60336C16.9148 10.3523 16.6878 11.1013 16.4433 11.8129C16.1565 12.6526 15.5095 13.1444 14.6215 13.2484C13.6079 13.3641 12.8154 12.9513 12.2292 12.1283C12.1419 12.0059 12.0662 11.8744 11.9764 11.733ZM11.7777 8.99501C11.7661 7.4521 10.5171 6.20795 9.00128 6.23042C7.44968 6.25289 6.22403 7.49122 6.24481 9.01415C6.26726 10.5695 7.49208 11.7929 9.02207 11.7779C9.38587 11.7773 9.74594 11.7047 10.0816 11.5643C10.4173 11.4239 10.7219 11.2185 10.978 10.9599C11.2341 10.7012 11.4366 10.3945 11.5738 10.0573C11.711 9.72012 11.7803 9.3591 11.7777 8.99501Z" fill="#DD1D21" stroke="#DD1D21" stroke-width="0.5"/>
</svg>
